<?xml version="1.0" encoding="UTF-8"?>
<svg version="1.1" xmlns="http://www.w3.org/2000/svg" width="1024" height="1024">
<path d="M0 0 C337.92 0 675.84 0 1024 0 C1024 337.92 1024 675.84 1024 1024 C686.08 1024 348.16 1024 0 1024 C0 686.08 0 348.16 0 0 Z " fill="#FDFDFD" transform="translate(0,0)"/>
<path d="M0 0 C6.93 0 13.86 0 21 0 C21.94359375 2.21332031 22.8871875 4.42664063 23.859375 6.70703125 C30.33320107 21.87396823 36.85128946 37.01494871 43.58129883 52.0703125 C48.65208313 63.42643008 53.58853236 74.83952009 58.51867676 86.25714111 C60.47296495 90.78268561 62.43232806 95.30600708 64.39453125 99.828125 C69.16058368 110.81332295 73.92323477 121.79957635 78.625 132.8125 C81.73986234 140.10664588 84.91864233 147.37064479 88.125 154.625 C92.28381978 164.03932477 96.36832241 173.48364012 100.41601562 182.94610596 C101.37281249 185.18238721 102.33078043 187.41816341 103.2890625 189.65380859 C106.12690646 196.27640938 108.96044654 202.90065218 111.77047729 209.53511047 C112.93945108 212.29096707 114.11515838 215.04391784 115.29229736 217.79629517 C115.83962275 219.08044175 116.38394578 220.36587291 116.92498779 221.65267944 C121.46225577 233.79285661 121.46225577 233.79285661 130.8125 241.9375 C131.864375 242.288125 132.91625 242.63875 134 243 C134 243.99 134 244.98 134 246 C112.88 246 91.76 246 70 246 C70 245.34 70 244.68 70 244 C70.66 244 71.32 244 72 244 C74.1453036 236.31029555 73.12244128 229.94039611 69.9375 222.75390625 C69.62675537 222.0167186 69.31601074 221.27953094 68.99584961 220.52000427 C68.01219428 218.19411815 67.0071422 215.87829941 66 213.5625 C64.9973537 211.22002792 63.99923376 208.87570823 63.00415039 206.53001404 C62.38629679 205.0775795 61.76325284 203.62733967 61.13452148 202.17958069 C59 197.21811435 59 197.21811435 59 195 C26.33 195 -6.34 195 -40 195 C-40.99 197.97 -41.98 200.94 -43 204 C-44.12019988 206.84858253 -45.25735594 209.67713958 -46.4375 212.5 C-46.74244385 213.24266113 -47.0473877 213.98532227 -47.36157227 214.75048828 C-48.92608977 218.53739314 -50.58856473 222.21674949 -52.4375 225.875 C-54.64053304 230.7349098 -54.68255853 235.7617601 -54 241 C-53.34 242.65 -52.68 244.3 -52 246 C-72.79 246 -93.58 246 -115 246 C-115 245.01 -115 244.02 -115 243 C-114.20335937 242.65388672 -114.20335937 242.65388672 -113.390625 242.30078125 C-112.68421875 241.97464844 -111.9778125 241.64851562 -111.25 241.3125 C-110.55390625 240.99925781 -109.8578125 240.68601562 -109.140625 240.36328125 C-103.55417586 236.80548791 -101.35606332 230.82282509 -98.83984375 224.984375 C-98.26058891 223.66526375 -98.26058891 223.66526375 -97.66963196 222.31950378 C-96.41852344 219.4660343 -95.1779929 216.60809827 -93.9375 213.75 C-93.0726632 211.77255143 -92.20709992 209.79542044 -91.34082031 207.81860352 C-89.64182191 203.93884153 -87.94663721 200.05745521 -86.25537109 196.17431641 C-83.60406803 190.08777382 -80.92886403 184.01196001 -78.25 177.9375 C-77.40215058 176.00919951 -76.55449677 174.08081299 -75.70703125 172.15234375 C-73.68739771 167.55951383 -71.66314119 162.96874328 -69.63671875 158.37890625 C-69.33942871 157.70550705 -69.04213867 157.03210785 -68.73583984 156.33830261 C-67.48730948 153.51028587 -66.23876834 150.68227391 -64.99005127 147.8543396 C-61.19416512 139.25684764 -57.40758636 130.65537223 -53.63671875 122.046875 C-52.13294718 118.6145243 -50.62907191 115.18221909 -49.125 111.75 C-48.56117615 110.46335953 -48.56117615 110.46335953 -47.98596191 109.15072632 C-42.44480051 96.51152623 -36.83908284 83.90267566 -31.1875 71.3125 C-24.49408206 56.40034211 -17.93974752 41.43430637 -11.47558594 26.42138672 C-9.05859989 20.81721026 -6.62306316 15.22112175 -4.1875 9.625 C-2.805625 6.44875 -1.42375 3.2725 0 0 Z " fill="#030303" transform="translate(592,390)"/>
<path d="M0 0 C22.44 0 44.88 0 68 0 C68 0.66 68 1.32 68 2 C67.071875 2.556875 66.14375 3.11375 65.1875 3.6875 C61.5330207 6.33878891 60.24876236 8.78880952 59 13 C58.73272485 15.68250402 58.60303444 18.12207715 58.63491821 20.7953949 C58.63179922 21.54962756 58.62868022 22.30386022 58.6254667 23.08094841 C58.6185575 25.59250068 58.63282088 28.10347523 58.64697266 30.61499023 C58.64614127 32.4225526 58.64392328 34.23011478 58.64042664 36.03767395 C58.63548412 39.92433978 58.63956097 43.81085451 58.65044022 47.69750786 C58.66684167 53.85643061 58.65831468 60.01516519 58.64559937 66.17408752 C58.61551928 82.58350696 58.6168805 98.99289269 58.63585222 115.40232569 C58.64822436 126.18134556 58.64621018 136.96015132 58.61746442 147.73914677 C58.60231585 153.84734464 58.60958854 159.95495808 58.63417459 166.06311882 C58.64432695 169.88473048 58.63346337 173.70608111 58.61705971 177.52766228 C58.61364086 179.28347744 58.61856287 181.03933463 58.63302803 182.79509354 C58.77718419 201.46771814 54.37118158 218.95480741 41.1875 232.9375 C34.07901458 239.63978625 26.17234647 243.78142598 17 247 C15.65035156 247.48146484 15.65035156 247.48146484 14.2734375 247.97265625 C-3.43215153 253.33420786 -22.02272048 250.30683692 -38.12109375 241.75390625 C-46.53533384 236.62772741 -57.65506753 228.56305144 -60.7109375 218.70703125 C-60.80632812 218.14371094 -60.90171875 217.58039063 -61 217 C-54.7264019 211.18751743 -48.38473001 205.54637562 -41.71484375 200.1875 C-39.85532705 198.68918439 -38.01488685 197.16696969 -36.19140625 195.625 C-35.30324219 194.8825 -34.41507812 194.14 -33.5 193.375 C-32.7059375 192.70210937 -31.911875 192.02921875 -31.09375 191.3359375 C-30.4028125 190.89507813 -29.711875 190.45421875 -29 190 C-26 191 -26 191 -24.97265625 192.85546875 C-24.67230469 193.62503906 -24.37195313 194.39460937 -24.0625 195.1875 C-22.0144128 200.06722291 -19.91123325 204.26251523 -15.9375 207.875 C-10.24893943 210.05359767 -4.35046989 209.68377306 1.4375 208 C5.74297183 204.63963175 7.30916989 200.07249033 9 195 C9.10167252 192.57026504 9.14781236 190.16893272 9.14717102 187.73895264 C9.15084771 186.99403824 9.1545244 186.24912385 9.1583125 185.48163629 C9.16935102 182.97831048 9.17319346 180.47502619 9.17700195 177.97167969 C9.18326646 176.17966073 9.18991325 174.38764307 9.19691467 172.59562683 C9.21432505 167.72152749 9.22487649 162.84743796 9.2331202 157.97331524 C9.23827018 154.92841865 9.24434591 151.88352511 9.25063133 148.83863068 C9.26968335 139.31267731 9.28391458 129.78673169 9.2922433 120.26076293 C9.3020174 109.26309362 9.32834142 98.26562548 9.36874419 87.26802707 C9.39889835 78.76856272 9.4137115 70.26915606 9.41702431 61.76963925 C9.41937553 56.69275824 9.42834545 51.61609215 9.45348549 46.53926849 C9.476759 41.76218674 9.48100232 36.98546153 9.47072411 32.20833778 C9.47022847 30.45680112 9.47655723 28.70524694 9.49028015 26.95376396 C9.50799497 24.55841037 9.50089587 22.16433696 9.48774719 19.76898193 C9.49871644 19.07937464 9.50968568 18.38976736 9.52098733 17.67926288 C9.45027107 12.3262474 7.95343622 9.31379512 5 5 C2.38142305 3.21037181 2.38142305 3.21037181 0 2 C0 1.34 0 0.68 0 0 Z " fill="#020202" transform="translate(372,390)"/>
<path d="M0 0 C0.66 0 1.32 0 2 0 C2.27038086 0.69633545 2.54076172 1.3926709 2.81933594 2.11010742 C10.74112279 22.47733352 18.9498599 42.70834356 27.46484375 62.8359375 C27.83391846 63.70855225 28.20299316 64.58116699 28.58325195 65.48022461 C29.24978581 67.05244473 29.91867046 68.62367161 30.59057617 70.19360352 C30.88295166 70.88123779 31.17532715 71.56887207 31.4765625 72.27734375 C31.72486816 72.85734131 31.97317383 73.43733887 32.22900391 74.03491211 C33.25573599 76.65181094 34.11104903 79.33314709 35 82 C12.23 82 -10.54 82 -34 82 C-30.55172414 71.65517241 -30.55172414 71.65517241 -28.625 66.625 C-28.24601563 65.62726563 -27.86703125 64.62953125 -27.4765625 63.6015625 C-26.30196335 60.73653495 -25.06378342 57.9418728 -23.765625 55.1328125 C-21.62878347 50.46981991 -19.63420718 45.7631328 -17.6953125 41.015625 C-17.26038986 39.95092484 -17.26038986 39.95092484 -16.81668091 38.86471558 C-15.61968409 35.92895101 -14.42571533 32.99197343 -13.23486328 30.05371094 C-9.11050451 19.8892208 -4.73762014 9.89427491 0 0 Z " fill="#F6F6F6" transform="translate(601,467)"/>
<path d="M0 0 C0.66 0.33 1.32 0.66 2 1 C-1.67557852 5.00972202 -5.18966896 7.45335415 -10 10 C-8.5741914 6.54804233 -6.90253666 4.8985744 -3.875 2.75 C-3.15054687 2.22921875 -2.42609375 1.7084375 -1.6796875 1.171875 C-1.12539063 0.78515625 -0.57109375 0.3984375 0 0 Z " fill="#131114" transform="translate(343,580)"/>
<path d="M0 0 C1.62463842 -0.05395478 3.24978541 -0.09277195 4.875 -0.125 C5.77992188 -0.14820313 6.68484375 -0.17140625 7.6171875 -0.1953125 C10 0 10 0 12 2 C10.41132134 3.58867866 8.75310484 3.20794039 6.5625 3.25 C5.75941406 3.27578125 4.95632813 3.3015625 4.12890625 3.328125 C3.42636719 3.21984375 2.72382813 3.1115625 2 3 C1.34 2.01 0.68 1.02 0 0 Z " fill="#F1F1F3" transform="translate(382,387)"/>
<path d="M0 0 C0.66 0 1.32 0 2 0 C2.33 1.65 2.66 3.3 3 5 C2.01 5 1.02 5 0 5 C-0.66 6.65 -1.32 8.3 -2 10 C-2.66 10 -3.32 10 -4 10 C-2.8905928 6.51329166 -1.73662334 3.22515763 0 0 Z " fill="#D6D5D5" transform="translate(601,467)"/>
<path d="M0 0 C2.97 1.65 5.94 3.3 9 5 C8.67 5.66 8.34 6.32 8 7 C4.84859577 6.65930765 3.39218439 6.41923159 1.1875 4.0625 C0 2 0 2 0 0 Z " fill="#121210" transform="translate(716,628)"/>
<path d="M0 0 C0 3 0 3 -1.3125 4.38671875 C-2.875 5.59114583 -4.4375 6.79557292 -6 8 C-6.66 7.34 -7.32 6.68 -8 6 C-7.05125 5.38125 -6.1025 4.7625 -5.125 4.125 C-2.05554891 2.18029031 -2.05554891 2.18029031 0 0 Z " fill="#1F201F" transform="translate(488,626)"/>
</svg>
